<svg width="294" height="134" viewBox="0 0 294 134" fill="none" xmlns="http://www.w3.org/2000/svg">
<path d="M10.32 122H2.58V91.9H10.32V103.725H14.19L20.898 91.9H29.068L20.64 106.735L29.025 122H20.855L14.19 109.745H10.32V122ZM40.6686 100.07V122H33.1436V105.875H29.9186V100.07H40.6686ZM33.1436 91.47H40.6686V97.49H33.1436V91.47ZM57.667 105.015C56.1477 105.015 54.4277 105.302 52.507 105.875V122H44.982V99.21H51.647L52.077 101.36C53.4244 100.471 54.8004 99.8263 56.205 99.425C57.6384 98.995 58.8424 98.78 59.817 98.78H61.752C63.7014 98.78 65.2637 99.3677 66.439 100.543C67.6144 101.718 68.202 103.281 68.202 105.23V122H60.677V106.52C60.677 106.09 60.5337 105.732 60.247 105.445C59.9604 105.158 59.602 105.015 59.172 105.015H57.667ZM79.592 99.64C82.3727 99.0667 84.8093 98.78 86.902 98.78H88.837C90.7863 98.78 92.3487 99.3677 93.524 100.543C94.6993 101.718 95.287 103.281 95.287 105.23V122H87.762V106.09C87.762 105.66 87.6187 105.302 87.332 105.015C87.0453 104.728 86.687 104.585 86.257 104.585H84.752C83.6627 104.585 82.6593 104.642 81.742 104.757C80.8533 104.872 80.1367 104.958 79.592 105.015V122H72.067V91.9H79.592V99.64ZM122.372 115.55C122.372 117.7 121.756 119.391 120.523 120.624C119.319 121.828 117.642 122.43 115.492 122.43H105.602C103.452 122.43 101.761 121.828 100.528 120.624C99.324 119.391 98.722 117.7 98.722 115.55V105.66C98.722 103.51 99.324 101.833 100.528 100.629C101.761 99.3963 103.452 98.78 105.602 98.78H115.492C117.642 98.78 119.319 99.3963 120.523 100.629C121.756 101.833 122.372 103.51 122.372 105.66V115.55ZM114.847 106.305C114.847 105.158 114.274 104.585 113.127 104.585H107.967C106.82 104.585 106.247 105.158 106.247 106.305V114.905C106.247 116.052 106.82 116.625 107.967 116.625H113.127C114.274 116.625 114.847 116.052 114.847 114.905V106.305ZM154.394 98.78C156.716 98.78 158.507 99.64 159.769 101.36C161.087 100.471 162.506 99.8263 164.026 99.425C165.574 98.995 166.95 98.78 168.154 98.78H168.584C170.533 98.78 172.095 99.3677 173.271 100.543C174.446 101.718 175.034 103.281 175.034 105.23V122H167.509V106.52C167.509 106.09 167.365 105.732 167.079 105.445C166.792 105.158 166.434 105.015 166.004 105.015H165.789C164.499 105.015 162.85 105.302 160.844 105.875V122H153.319V106.52C153.319 106.09 153.175 105.732 152.889 105.445C152.602 105.158 152.244 105.015 151.814 105.015H151.599C150.309 105.015 148.66 105.302 146.654 105.875V122H139.129V99.21H145.794L146.224 101.36C147.571 100.471 148.947 99.8263 150.352 99.425C151.785 98.995 152.989 98.78 153.964 98.78H154.394ZM202.115 115.55C202.115 117.7 201.499 119.391 200.266 120.624C199.062 121.828 197.385 122.43 195.235 122.43H185.345C183.195 122.43 181.504 121.828 180.271 120.624C179.067 119.391 178.465 117.7 178.465 115.55V105.66C178.465 103.51 179.067 101.833 180.271 100.629C181.504 99.3963 183.195 98.78 185.345 98.78H195.235C197.385 98.78 199.062 99.3963 200.266 100.629C201.499 101.833 202.115 103.51 202.115 105.66V115.55ZM194.59 106.305C194.59 105.158 194.017 104.585 192.87 104.585H187.71C186.563 104.585 185.99 105.158 185.99 106.305V114.905C185.99 116.052 186.563 116.625 187.71 116.625H192.87C194.017 116.625 194.59 116.052 194.59 114.905V106.305ZM221.89 122C219.109 122.287 216.386 122.43 213.72 122.43C211.771 122.43 210.208 121.842 209.033 120.667C207.858 119.492 207.27 117.929 207.27 115.98V105.015H204.69V99.21H207.27L208.13 94.05H214.795V99.21H220.17V105.015H214.795V114.905C214.795 115.335 214.938 115.693 215.225 115.98C215.512 116.267 215.87 116.41 216.3 116.41H221.89V122ZM247.299 115.55C247.299 117.7 246.682 119.391 245.45 120.624C244.246 121.828 242.569 122.43 240.419 122.43H230.529C228.379 122.43 226.687 121.828 225.455 120.624C224.251 119.391 223.649 117.7 223.649 115.55V105.66C223.649 103.51 224.251 101.833 225.455 100.629C226.687 99.3963 228.379 98.78 230.529 98.78H240.419C242.569 98.78 244.246 99.3963 245.45 100.629C246.682 101.833 247.299 103.51 247.299 105.66V115.55ZM239.774 106.305C239.774 105.158 239.2 104.585 238.054 104.585H232.894C231.747 104.585 231.174 105.158 231.174 106.305V114.905C231.174 116.052 231.747 116.625 232.894 116.625H238.054C239.2 116.625 239.774 116.052 239.774 114.905V106.305ZM264.279 105.445C262.473 105.445 260.609 105.875 258.689 106.735V122H251.164V99.21H257.829L258.259 102.005C260.724 99.855 263.304 98.78 265.999 98.78H267.934V105.445H264.279ZM270.082 115.98C275.901 116.41 280.488 116.625 283.842 116.625C284.272 116.625 284.63 116.482 284.917 116.195C285.204 115.908 285.347 115.55 285.347 115.12V113.615H276.102C274.153 113.615 272.59 113.027 271.415 111.852C270.24 110.677 269.652 109.114 269.652 107.165V105.66C269.652 103.711 270.24 102.148 271.415 100.973C272.59 99.7977 274.153 99.21 276.102 99.21H290.722V104.8H278.682C278.252 104.8 277.894 104.943 277.607 105.23C277.32 105.517 277.177 105.875 277.177 106.305C277.177 106.735 277.32 107.093 277.607 107.38C277.894 107.667 278.252 107.81 278.682 107.81H286.422C288.371 107.81 289.934 108.398 291.109 109.573C292.284 110.748 292.872 112.311 292.872 114.26V115.98C292.872 117.929 292.284 119.492 291.109 120.667C289.934 121.842 288.371 122.43 286.422 122.43C281.348 122.43 275.901 122.143 270.082 121.57V115.98Z" fill="#F30D0D"/>
<path d="M111.333 2.53323C110.533 4.13322 110 17.7332 110 37.1999C110 67.5999 110.133 69.4666 112.667 71.9999C115.2 74.5332 117.067 74.6666 147.067 74.6666C173.6 74.6666 179.2 74.2666 181.733 72.5332C184.667 70.5332 184.667 70.1332 184.667 36.7999C184.667 12.3999 184.267 2.7999 183.067 1.59989C181.867 0.399895 172 -0.000106812 147.067 -0.000106812C114.533 -0.000106812 112.667 0.133224 111.333 2.53323ZM131.333 16.6666C131.333 27.8666 131.6 29.3332 133.733 29.3332C135.067 29.3332 140.933 23.7332 147.067 16.6666L158 3.99989H168.133H178.267L171.067 12.5332C167.2 17.1999 160.933 24.5332 157.067 28.9332L150.133 36.9332L162.4 50.7999C169.2 58.5332 175.467 65.8666 176.533 67.0666C178.133 69.1999 177.6 69.3332 167.867 69.3332L157.333 69.1999L147.333 57.3332C141.2 49.9999 136.267 45.3332 134.667 45.1999C133.2 45.1999 128.533 45.0666 124.4 45.0666H116.667V24.5332V3.99989H124H131.333V16.6666Z" fill="#F30D0D"/>
</svg>
