<svg width="87" height="70" viewBox="0 0 87 70" fill="none" xmlns="http://www.w3.org/2000/svg">
<path d="M38.5665 1.02271C37.772 1.57816 37.4917 1.57816 37.4917 1.16157C37.4917 0.652397 35.856 0.60611 29.6875 0.883839C18.799 1.30043 19.4532 1.06899 17.5372 5.23493C16.6493 7.17904 15.3408 10.3266 14.5464 12.2244C12.5837 17.2699 12.4435 17.455 11.6023 15.4646C11.2285 14.5389 10.6209 13.6594 10.2938 13.5205C9.9667 13.4279 7.9105 13.4742 5.76085 13.6594C2.77002 13.9371 1.69519 14.2148 1.18114 14.8629C-0.361002 16.9458 0.854021 18.4734 4.40563 18.9362C5.76085 19.0751 7.81704 19.3528 8.9386 19.538L10.9948 19.8157L9.63958 20.51C7.53665 21.5747 5.66738 23.4262 4.73275 25.4629C3.93831 27.1293 3.84485 28.6105 3.84485 39.1642C3.84485 48.4218 3.98504 51.1528 4.49909 51.8472C5.38699 53.0507 10.3873 53.3747 32.3512 53.745L50.3429 54.0227L48.7073 53.0044C47.8194 52.4489 46.4174 51.3843 45.6697 50.6437L44.221 49.3013L29.7809 49.2087L15.2941 49.0699V47.2183V45.3668L28.0519 45.2279C35.0149 45.1817 40.7629 44.9502 40.7629 44.7651C40.7629 44.5336 40.4825 44.0245 40.2021 43.6079C39.6413 42.9135 38.1926 42.821 27.4443 42.7284L15.2941 42.5895V40.738V38.8865L20.1542 38.7476C22.8646 38.7013 25.2947 38.4236 25.6218 38.1458C25.9022 37.9144 26.2761 37.0349 26.463 36.248C26.977 33.7022 27.3509 33.5633 32.8185 33.5633H37.8655L38.3796 30.6934C38.6599 29.0734 39.688 26.2035 40.6227 24.3057C41.604 22.4079 42.4452 20.7415 42.4919 20.6026C42.5854 20.4638 37.0243 20.3712 30.108 20.3249C23.2385 20.3249 17.0699 20.1397 16.3689 20.0009C14.1258 19.4454 14.266 18.1031 17.397 10.8358C18.9859 7.17904 20.6683 3.8 21.229 3.33711C22.0235 2.68908 23.1918 2.55021 29.2669 2.55021C33.1456 2.55021 37.0243 2.36506 37.8655 2.13362C38.8001 1.85589 39.3609 1.85589 39.3609 2.13362C39.3609 2.36506 39.875 2.55021 40.5292 2.55021C41.2769 2.55021 41.6975 2.27248 41.6975 1.8096C41.6975 1.20786 41.8377 1.16157 42.3517 1.57816C42.7256 1.90218 45.7632 2.2262 50.0625 2.36506C56.2311 2.55021 57.119 2.50393 57.119 1.90218C57.119 1.02271 55.2497 0.930126 54.3618 1.71703C53.9879 2.08733 53.8477 2.08733 53.9879 1.8096C54.2216 1.4393 52.7729 1.20786 49.0344 1.02271C46.1837 0.883839 43.3798 0.791264 42.8658 0.837551C42.3517 0.837551 41.4171 0.744976 40.7629 0.60611C40.0619 0.420956 39.174 0.60611 38.5665 1.02271ZM21.0888 26.1109C22.2104 27.2218 22.9114 32.4987 22.1169 33.9799C21.3225 35.4611 19.7804 35.6 13.051 34.8131C7.34972 34.1188 6.78894 33.9799 5.76085 32.8227C4.87295 31.7581 4.73275 31.2026 4.91968 29.6751C5.29353 26.8515 6.32163 26.2961 11.649 25.9258C14.1725 25.7869 16.4624 25.5555 16.6961 25.4629C18.0513 25 20.2944 25.324 21.0888 26.1109ZM12.6304 40.2751C14.0791 41.9878 13.9856 43.9782 12.3033 45.6445C10.0602 47.8664 6.88241 47.4035 5.48046 44.6262C4.87295 43.469 4.82621 42.9135 5.2468 41.6175C6.2749 38.5624 10.434 37.8218 12.6304 40.2751ZM12.7239 49.9956V51.662L9.35919 51.5231L5.94777 51.3843L5.80758 49.8568L5.66738 48.3755H9.17226H12.7239V49.9956Z" fill="black"/>
<path d="M57.7265 1.85588C57.7265 2.22619 58.1003 2.64278 58.5676 2.78165C59.5957 3.10566 62.2594 6.9013 62.2594 8.01221C62.3062 9.58601 64.0352 12.5947 65.0633 12.8725C65.9512 13.1039 66.0447 13.0113 65.7643 11.9004C65.3437 10.1878 62.2127 3.42968 61.3715 2.41134C60.9977 1.94846 60.25 1.62444 59.7359 1.71702C59.1752 1.76331 58.5209 1.67073 58.2405 1.53186C57.9601 1.34671 57.7265 1.48558 57.7265 1.85588Z" fill="black"/>
<path d="M57.119 13.5205C47.5857 15.2332 40.6227 22.3153 39.2675 31.7118C38.8469 34.8131 38.8936 35.8777 39.5011 38.4699C40.9498 44.2559 43.8004 48.4218 48.4736 51.6157C51.1373 53.4209 53.5206 54.3467 57.2124 54.9022C61.5117 55.5502 66.9793 54.5319 70.7179 52.3563L73.3349 50.8288L74.9237 52.2637C75.8116 53.0506 78.5221 55.4576 80.9521 57.6332C83.3354 59.8087 85.3916 61.5677 85.4851 61.5677C85.5785 61.5677 87.4945 63.2803 89.6909 65.4096C92.3079 67.9092 94.037 69.2052 94.738 69.2052C95.7661 69.2052 98.3363 66.6131 100.206 63.6044L101 62.3546L97.4484 59.207C94.037 56.1057 92.7285 55.2262 92.0743 55.5965C91.8873 55.7354 91.6537 55.4113 91.4667 54.9022C91.3265 54.4393 88.4759 51.9397 85.158 49.3476C81.7933 46.7554 79.0828 44.441 79.0828 44.2559C79.0828 44.117 79.5034 42.7284 80.0175 41.2934C83.4289 31.6655 79.41 20.9729 70.4842 16.0201C68.3813 14.8629 64.3156 13.5668 63.3343 13.7057C63.1006 13.7519 62.867 13.7057 62.7268 13.6594C62.1192 13.4279 58.1471 13.3354 57.119 13.5205ZM67.3999 18.8899C70.8113 20.51 73.9891 23.6113 75.6247 26.9441C76.8397 29.3511 76.9799 30.0917 76.9799 34.2576C76.9799 38.3773 76.8397 39.1642 75.7182 41.4786C74.0358 44.8113 70.8113 48.0052 67.4934 49.6253C65.1101 50.7825 64.3156 50.9214 60.1565 50.9214C55.9507 50.9214 55.203 50.7825 52.9131 49.6253C49.4082 47.8201 46.2305 44.6262 44.6416 41.2471C43.52 38.8402 43.3331 37.8218 43.3331 34.2576C43.3331 30.6471 43.52 29.7214 44.6416 27.3144C46.6978 22.9633 50.67 19.3991 55.016 17.9642C58.1003 16.9458 64.3156 17.4087 67.3999 18.8899ZM95.9062 60.6419C95.9062 60.7345 95.5324 60.7808 95.0651 60.7345C94.5978 60.7345 94.1772 60.4105 94.1772 60.1327C94.1772 59.7161 94.4108 59.6699 95.0651 59.9939C95.5324 60.2253 95.9062 60.5493 95.9062 60.6419Z" fill="black"/>
<path d="M57.7265 21.6209C58.3807 25.1851 60.3902 42.034 60.25 42.2192C60.0631 42.3581 59.3621 40.8768 56.3713 33.6559C56.0441 32.869 55.6236 32.1747 55.4366 32.1747C54.2216 32.1747 46.838 34.2113 46.838 34.5354C46.838 35.0908 47.2119 35.0908 51.2775 34.1651C53.3804 33.7022 54.9693 33.5633 55.203 33.841C55.6236 34.2576 59.5957 43.6541 60.5304 46.4314C60.9977 47.8664 62.1193 48.283 61.9323 46.9406C61.0912 40.8768 59.4088 26.0183 59.549 25.648C59.6425 25.324 60.764 27.4533 62.0725 30.3694C63.3343 33.2393 64.6428 35.6463 64.9232 35.7389C65.2503 35.8777 65.5307 35.1834 65.6241 33.9336L65.7643 31.9432L69.1757 31.2952C71.3721 30.8323 72.5404 30.3694 72.5404 29.9528C72.5404 29.6288 72.4002 29.4437 72.2133 29.5362C71.9796 29.6288 70.2038 30.0917 68.2411 30.5083C65.6709 31.0637 64.596 31.5266 64.5026 32.0821C64.3156 32.9153 63.1941 30.6934 60.3435 23.9816C58.7078 20.0471 57.2124 18.7511 57.7265 21.6209Z" fill="black"/>
<path d="M70.2038 13.8908C69.7832 14.4 69.8767 14.6314 70.6244 15.0018C71.1385 15.2795 71.9329 15.3721 72.4002 15.2332C72.961 15.048 73.0545 15.0943 72.6339 15.3721C71.7927 15.9738 75.8116 18.7511 77.5407 18.7511C79.3165 18.7511 80.0175 18.0105 80.0175 16.159C80.0175 14.3537 79.8773 14.2149 76.9332 13.8908C71.3254 13.2891 70.7179 13.2891 70.2038 13.8908Z" fill="black"/>
<path d="M72.3068 52.5415C72.1666 52.7729 72.4469 53.0044 73.0077 53.0044C73.5685 53.0044 73.8489 52.7729 73.7087 52.5415C73.5685 52.2638 73.2414 52.0786 73.0077 52.0786C72.7741 52.0786 72.4469 52.2638 72.3068 52.5415Z" fill="black"/>
<path d="M4.31216 57.3554C4.31216 61.3825 4.40563 61.7991 5.34026 62.4471C6.69548 63.4192 7.58338 63.3729 7.58338 62.3546C7.58338 61.7991 7.72358 61.7528 7.95723 62.1231C8.19089 62.4471 9.26572 62.8637 10.434 63.0026C13.2846 63.3729 13.9389 62.5397 14.3595 58.0498C14.6866 54.6244 14.6399 54.5319 13.6118 54.2541C13.0043 54.069 11.0415 53.9301 9.31245 53.9301C7.53665 53.9301 5.71411 53.6987 5.20007 53.4672C4.3589 53.0044 4.31216 53.1432 4.31216 57.3554ZM10.6209 58.5589C10.7611 58.8367 10.5742 58.883 10.2004 58.7441C9.35919 58.4201 9.21899 58.0961 9.87323 58.0961C10.1536 58.0961 10.4807 58.2812 10.6209 58.5589Z" fill="black"/>
<path d="M67.7738 54.717L65.998 55.4576V58.3738C65.998 60.9659 66.1382 61.3825 67.213 62.2157C68.8486 63.5118 73.8022 63.6044 75.2976 62.3546C76.2322 61.6603 76.3257 61.1974 76.1855 57.8646L76.0453 54.1616L72.7741 54.069C70.7179 54.0227 68.8486 54.2542 67.7738 54.717Z" fill="black"/>
</svg>
