<svg width="81" height="70" viewBox="0 0 81 70" fill="none" xmlns="http://www.w3.org/2000/svg">
<path d="M48.4893 1.80328V2.79164L49.266 2.6997L50.0428 2.60776V5.27403V7.9403H40.8329H31.623V9.73313V11.526L37.7925 12.1466C41.1658 12.4913 45.3158 12.8821 47.0024 13.043L50.0428 13.3188V18.8812V24.4666L52.95 24.5355C54.5479 24.5815 55.9016 24.5585 55.946 24.5125C55.9904 24.4666 56.0348 21.9152 56.0348 18.8582V13.3188L60.2069 12.9281C62.4928 12.7212 66.6206 12.3075 69.4168 12.0316L74.4545 11.549V9.73313V7.9403H65.2446H56.0348V5.29701V2.65373H56.8115C57.566 2.65373 57.5882 2.63074 57.5882 1.73433V0.814922H53.0388H48.4893V1.80328Z" fill="black"/>
<path d="M26.0971 7.34268C25.9195 7.54955 25.8529 8.42298 25.8973 9.91701L25.9639 12.1925L28.5826 12.2615L31.2013 12.3304L31.1348 9.73313L31.0682 7.13582L28.7158 7.06686C26.896 7.02089 26.2968 7.08985 26.0971 7.34268ZM28.9155 8.56089C28.8045 9.1585 28.0722 9.22746 28.0722 8.65283C28.0722 8.30806 28.2053 8.17015 28.5382 8.17015C28.8489 8.17015 28.9599 8.28507 28.9155 8.56089ZM28.8489 10.8364C28.8489 11.0663 28.6714 11.2961 28.4716 11.3421C28.0722 11.411 27.8946 10.7215 28.2275 10.3767C28.4938 10.1239 28.8489 10.3767 28.8489 10.8364Z" fill="black"/>
<path d="M75.0538 7.18179C74.965 7.25074 74.8984 8.44597 74.8984 9.82507V12.3304L77.5171 12.2615L80.1136 12.1925L80.1802 9.91701C80.2246 8.44597 80.158 7.54955 79.9805 7.34268C79.803 7.11283 79.1372 7.02089 77.4505 7.02089C76.2078 7.02089 75.1203 7.08985 75.0538 7.18179ZM78.0054 8.62985C78.0054 8.92865 77.85 9.08955 77.5615 9.08955C77.273 9.08955 77.1177 8.92865 77.1177 8.62985C77.1177 8.33104 77.273 8.17015 77.5615 8.17015C77.85 8.17015 78.0054 8.33104 78.0054 8.62985ZM77.961 10.8824C78.0054 11.2042 77.9166 11.3881 77.6947 11.3881C77.273 11.3881 77.0511 10.9973 77.2064 10.5606C77.384 10.0549 77.8722 10.2848 77.961 10.8824Z" fill="black"/>
<path d="M42.8302 25.9606C41.8538 26.4203 41.4099 27.0179 39.6345 30.3967L38.0366 33.4537H36.0837C33.8866 33.4537 33.6203 33.6146 33.6203 34.8558C33.6203 36.3039 33.7535 36.4418 35.1738 36.4418H36.461L35.5733 38.0967C33.9088 41.2457 33.9754 40.9009 33.8866 46.5552C33.8201 51.6579 33.8201 51.7269 34.3305 52.5313C35.4179 54.2322 34.4636 54.1403 53.0388 54.1403C68.4404 54.1403 69.7497 54.1173 70.4377 53.7266C72.0356 52.8991 72.1243 52.6003 72.1909 47.3367C72.2797 41.9812 72.1465 41.2687 70.6818 38.5104C70.1936 37.591 69.7941 36.7406 69.7941 36.6487C69.7941 36.5337 70.3267 36.4418 70.9925 36.4418C72.3241 36.4418 72.4572 36.3039 72.4572 34.8558C72.4572 33.6146 72.1909 33.4537 69.9717 33.4537H68.0409L66.7538 31.0173C64.8674 27.4316 64.2238 26.4893 63.3583 26.0525C62.6481 25.6848 61.6939 25.6388 53.0388 25.6388C45.5821 25.6618 43.3407 25.7307 42.8302 25.9606ZM62.9144 27.4776C63.4249 27.7534 68.3072 37.0854 68.1519 37.4761C67.9743 38.0048 38.1032 37.9818 37.9257 37.4761C37.7925 37.1313 42.5417 27.8454 43.0078 27.5466C43.7179 27.0639 62.0711 27.0179 62.9144 27.4776ZM41.0992 41.1307C42.453 41.8203 43.607 42.5328 43.6735 42.7397C43.7623 42.9696 43.6513 43.2913 43.385 43.5672C43.0521 43.9119 42.7415 43.9809 41.8981 43.9119C41.3211 43.866 40.1005 43.751 39.1907 43.7051C37.9035 43.6131 37.4374 43.4752 37.038 43.0845C36.1725 42.234 36.4166 40.5561 37.4596 40.1194C38.303 39.7746 38.5915 39.8666 41.0992 41.1307ZM69.1949 40.6021C69.7497 41.3146 69.6832 42.4639 69.0396 43.0845C68.5735 43.5442 68.1519 43.6361 65.7551 43.797C63.1808 43.9809 63.0032 43.9579 62.6481 43.5442C62.4484 43.2913 62.3374 42.9236 62.404 42.7167C62.4706 42.5328 63.6468 41.7973 65.0005 41.1078C67.6636 39.7746 68.4404 39.6827 69.1949 40.6021ZM58.5869 50.6925V51.9567H53.0388H47.4907L47.4241 50.9454C47.2909 49.1985 46.958 49.2904 53.0832 49.3594L58.5869 49.4284V50.6925Z" fill="black"/>
<path d="M50.7529 28.3281L50.8195 28.9716L53.1054 29.0406L55.369 29.1096V28.397V27.7075H53.0166H50.6864L50.7529 28.3281Z" fill="black"/>
<path d="M14.8011 35.4534C12.9147 36.4188 12.3821 39.2919 13.7802 41.0158L14.335 41.7284L14.9342 41.2916C15.2671 41.0618 16.5099 40.6251 17.6861 40.3493C20.0607 39.7976 20.2604 39.6367 19.9719 38.0967C19.7944 37.0624 18.9511 35.8672 18.0856 35.4075C17.2422 34.9478 15.7332 34.9708 14.8011 35.4534Z" fill="black"/>
<path d="M0.997314 42.8776V46.785H3.66042H6.32352V47.4746C6.32352 47.8424 6.41229 48.1642 6.52325 48.1642C7.03368 48.1642 8.32084 47.4286 8.32084 47.1298C8.32084 46.877 8.58715 46.785 9.27512 46.785C9.78555 46.785 10.3626 46.6701 10.5401 46.5552C10.762 46.4173 9.31951 46.3253 6.27913 46.3253H1.66309V42.9236V39.5218H7.03368C11.1171 39.5448 12.4043 39.4758 12.493 39.2459C12.5596 39.0391 11.2946 38.9701 6.78956 38.9701H0.997314V42.8776Z" fill="black"/>
<path d="M18.5294 40.671C16.8872 41.0618 15.4225 41.4755 15.2893 41.5445C15.1562 41.6364 14.3572 42.7857 13.5139 44.1188L11.9826 46.5322L8.98664 47.7504C6.03504 48.9457 5.99065 48.9686 5.92407 49.7271C5.8353 50.6695 6.19038 51.1522 6.96712 51.1522C7.27782 51.1292 8.89787 50.6006 10.5401 49.934C13.4695 48.7618 13.5361 48.7158 14.3572 47.5206L15.1784 46.2794L15.4003 47.1758C15.5334 47.6585 15.8885 48.9686 16.1992 50.1179C16.4877 51.2442 16.754 52.3704 16.754 52.6003C16.754 52.8301 15.7332 54.2092 14.4904 55.6573C13.2476 57.1054 12.138 58.4385 12.027 58.6224C11.9382 58.8292 11.7829 61.1967 11.7163 63.886L11.5832 68.8048L12.1602 69.4024C12.8481 70.1149 14.0243 70.2069 14.7567 69.5863C15.4225 69.0346 15.6222 67.7245 15.6444 63.794V60.4612L17.4642 58.3466C18.4628 57.1743 19.3062 56.2549 19.3505 56.3009C19.3949 56.3469 19.1286 57.0824 18.7292 57.9558C18.3075 58.9442 18.0856 59.7716 18.1743 60.1164C18.3297 60.9439 21.9915 69.0576 22.4353 69.5633C22.857 70.046 24.2551 70.1609 24.9653 69.7701C25.4535 69.4943 25.8973 68.2991 25.6976 67.7474C25.631 67.5406 24.8321 65.6788 23.9 63.6101L22.2578 59.8636L23.8334 56.094C24.6989 54.0024 25.4091 52.1636 25.4091 51.9797C25.4091 51.7958 25.1428 50.6466 24.8321 49.4283L24.2773 47.2218L25.4091 45.8657C27.007 43.9579 26.9404 43.6591 24.4104 41.5674C23.323 40.648 22.2134 39.9125 21.9693 39.9125C21.7251 39.9355 20.1717 40.2573 18.5294 40.671Z" fill="black"/>
<path d="M6.43449 40.648C6.36791 40.8089 6.34572 41.9812 6.36791 43.2454L6.43449 45.5209H7.43315H8.43181L8.4762 44.2567C8.49839 43.2454 8.4762 43.1304 8.32085 43.6821C8.14331 44.3716 8.14331 44.3716 8.12112 43.4982C8.12112 43.0155 8.1877 42.6707 8.29866 42.7397C8.38743 42.8086 8.4762 42.3259 8.45401 41.6594L8.43181 40.4642L7.47754 40.3952C6.83395 40.3492 6.50107 40.4182 6.43449 40.648ZM8.09893 42.188C8.09893 42.5328 7.94358 42.6477 7.45534 42.6477C6.76738 42.6477 6.4123 42.3489 6.65641 41.9582C6.72299 41.8203 7.07807 41.7283 7.45534 41.7283C7.94358 41.7283 8.09893 41.8433 8.09893 42.188ZM6.7008 43.843C6.63422 44.0039 6.58984 43.8889 6.58984 43.5671C6.58984 43.2454 6.63422 43.1304 6.7008 43.2683C6.74518 43.4292 6.74518 43.7051 6.7008 43.843ZM8.09893 44.8313C8.09893 45.0612 7.877 45.1761 7.43315 45.1761C6.9893 45.1761 6.76738 45.0612 6.76738 44.8313C6.76738 44.6015 6.9893 44.4865 7.43315 44.4865C7.877 44.4865 8.09893 44.6015 8.09893 44.8313Z" fill="black"/>
<path d="M3.06122 40.74C3.26095 40.786 3.61603 40.786 3.83796 40.74C4.03769 40.671 3.86015 40.6251 3.43849 40.6251C3.01684 40.6251 2.83929 40.671 3.06122 40.74Z" fill="black"/>
<path d="M11.0505 40.74C11.2503 40.786 11.6054 40.786 11.8273 40.74C12.027 40.671 11.8495 40.6251 11.4278 40.6251C11.0062 40.6251 10.8286 40.671 11.0505 40.74Z" fill="black"/>
<path d="M5.54678 41.2687C5.61336 41.3836 5.72432 41.4985 5.7909 41.4985C5.83529 41.4985 5.87967 41.3836 5.87967 41.2687C5.87967 41.1307 5.76871 41.0388 5.63555 41.0388C5.52459 41.0388 5.48021 41.1307 5.54678 41.2687Z" fill="black"/>
<path d="M13.2032 42.4409C13.2032 43.5671 13.2254 43.6131 13.5361 43.1994C13.9578 42.6248 13.9578 41.8663 13.5361 41.4985C13.2476 41.2457 13.2032 41.3836 13.2032 42.4409Z" fill="black"/>
<path d="M3.06122 44.1878C3.26095 44.2337 3.61603 44.2337 3.83796 44.1878C4.03769 44.1188 3.86015 44.0728 3.43849 44.0728C3.01684 44.0728 2.83929 44.1188 3.06122 44.1878Z" fill="black"/>
<path d="M11.0505 44.1878C11.2503 44.2337 11.6054 44.2337 11.8273 44.1878C12.027 44.1188 11.8495 44.0728 11.4278 44.0728C11.0062 44.0728 10.8286 44.1188 11.0505 44.1878Z" fill="black"/>
<path d="M31.4011 47.7045C31.4011 48.371 31.3123 48.6239 31.0682 48.6239C30.8241 48.6239 30.7353 48.8997 30.7353 49.6352C30.7353 50.2098 30.6465 50.7385 30.5134 50.8074C30.4024 50.8764 30.2914 51.1982 30.2914 51.52C30.2914 51.8188 30.4024 52.0716 30.5134 52.0716C30.6465 52.0716 30.7353 52.5773 30.7353 53.2209C30.7353 54.0943 30.8241 54.3701 31.0682 54.3701C31.3123 54.3701 31.4011 54.623 31.4011 55.2895C31.4011 55.9561 31.4898 56.2089 31.734 56.2089C31.9781 56.2089 32.0668 55.9561 32.0668 55.2895V54.3701H33.2874H34.508V56.094V57.8179H32.2888H30.0695V59.0821V60.3463H53.0388H76.008V59.0821V57.8179H73.7888H71.5695V56.2549C71.5695 55.3815 71.5251 54.623 71.4586 54.554C71.392 54.4851 70.9703 54.577 70.5043 54.7379C70.0604 54.8988 69.0174 55.0367 68.1963 55.0597H66.6872V56.4388V57.8179H61.361H56.0348V56.4388V55.0597H53.0388H50.0428V56.4388V57.8179H44.7166H39.3904V56.4388V55.0597H38.0144C36.239 55.0597 35.1516 54.7379 34.2639 53.9794C33.3096 53.1289 32.9545 52.1406 32.9545 50.2328C32.9545 48.7848 32.9102 48.6239 32.5107 48.6239C32.1334 48.6239 32.0668 48.463 32.0668 47.7045C32.0668 47.0379 31.9781 46.7851 31.734 46.7851C31.4898 46.7851 31.4011 47.0379 31.4011 47.7045Z" fill="black"/>
<path d="M74.0107 47.7045C74.0107 48.463 73.9441 48.6239 73.5669 48.6239C73.1674 48.6239 73.123 48.7848 73.123 50.2328C73.123 51.9337 72.8123 52.8761 71.9468 53.8415L71.503 54.3701H72.7457H74.0107V55.2896C74.0107 55.9561 74.0995 56.209 74.3436 56.209C74.5877 56.209 74.6765 55.9561 74.6765 55.2896C74.6765 54.623 74.7653 54.3701 75.0094 54.3701C75.2979 54.3701 75.3423 53.8875 75.3423 51.497C75.3423 49.1066 75.2979 48.6239 75.0094 48.6239C74.7653 48.6239 74.6765 48.371 74.6765 47.7045C74.6765 47.0379 74.5877 46.7851 74.3436 46.7851C74.0995 46.7851 74.0107 47.0379 74.0107 47.7045Z" fill="black"/>
<path d="M0.997328 57.0134C0.997328 63.9089 1.04171 64.9433 1.33022 64.9433C1.86284 64.9433 1.70749 65.334 1.10829 65.4949C0.375938 65.6788 0.109628 66.7361 0.66444 67.1728C1.6631 67.9083 2.41765 67.2188 2.17353 65.7707L2.04038 64.9433H6.63423H11.2059L11.2281 63.1504C11.2281 62.1851 11.2947 60.691 11.3834 59.8636C11.5388 58.4615 11.6497 58.2546 12.715 57.0134L13.869 55.6573V52.4854C13.869 50.4397 13.7802 49.3134 13.6471 49.3134C13.5139 49.3134 12.0936 49.8191 10.4957 50.4627C7.63289 51.5889 6.94492 51.7498 6.21257 51.474C5.72433 51.2672 5.21391 50.1639 5.36925 49.5892C5.48022 49.1066 5.43583 49.0836 3.23877 49.0836H0.997328V57.0134ZM12.6484 53.4507C12.7372 53.6116 10.9396 53.6806 7.43316 53.6806C3.92674 53.6806 2.12915 53.6116 2.21792 53.4507C2.30669 53.3128 4.28182 53.2209 7.43316 53.2209C10.5845 53.2209 12.5596 53.3128 12.6484 53.4507ZM1.84064 66.3913C1.92941 66.851 1.28583 67.1728 0.952943 66.8281C0.620055 66.4833 0.930751 65.8167 1.3746 65.9086C1.59653 65.9546 1.79626 66.1615 1.84064 66.3913Z" fill="black"/>
<path d="M27.1845 51.3821V53.2209H28.627H30.0917L30.0252 51.4281L29.9586 49.6582L28.5826 49.5892L27.1845 49.5203V51.3821Z" fill="black"/>
<path d="M76.1634 49.7042C76.0746 49.7731 76.008 50.6006 76.008 51.543V53.2209H77.4505H78.8931V51.3821V49.5433H77.6059C76.8957 49.5433 76.23 49.6122 76.1634 49.7042Z" fill="black"/>
<path d="M50.0428 63.3343V65.1731H43.7179H37.3931V66.2075V67.2418H53.0388H68.6845V66.2075V65.1731H62.3596H56.0348V63.3343V61.4955H53.0388H50.0428V63.3343Z" fill="black"/>
</svg>
